# xmcd CD database file
#
# Track frame offsets:
#	150
#	12465
#	31896
#	46609
#	65483
#	82686
#	96827
#	114018
#	132316
#	152076
#	168772
#	188881
#
# Disc length: 2737 seconds
#
# Revision: 0
# Processed by: cddbd v1.5.2PL0 Copyright (c) Steve Scherf et al.
# Submitted via: CDex 1.51
#
DISCID=840aaf0c
DTITLE=Marty Grosz And His Honoris Causa Jazz Band - Hooray For Bix!
DYEAR=1900
DGENRE=Jazz
TTITLE0=Changes
TTITLE1=Cryin' All Day
TTITLE2=Lonely Melody
TTITLE3=I'm Gonna Meet My Sweetie Now
TTITLE4=Sorry
TTITLE5=My Pet
TTITLE6=The Love Nest
TTITLE7=Clementine
TTITLE8=Oh, Miss Hannah
TTITLE9=Wa-Da-Da (Everybody's Doin' It Now)
TTITLE10=For No Reason At All In 'C'
TTITLE11=Because My Baby Don't Mean Maybe Now
EXTD=
EXTT0=
EXTT1=
EXTT2=
EXTT3=
EXTT4=
EXTT5=
EXTT6=
EXTT7=
EXTT8=
EXTT9=
EXTT10=
EXTT11=
PLAYORDER=
